<svg xmlns="http://www.w3.org/2000/svg" viewBox="15127 48 266.196 50.041">
  <g id="Group_1" data-name="Group 1" transform="translate(15127 48)">
    <path id="Path_1" data-name="Path 1" d="M42.8,9C29.214,9,20.1,18.114,20.1,28.432c0,9.8,8.77,14.961,17.884,14.961,13.757,0,22.7-9.114,22.7-19.432C60.683,13.987,51.913,9,42.8,9ZM45.55,23.789c-.172,5.675-2.923,12.037-7.222,11.521-2.407-.172-3.611-3.439-3.439-6.535.172-6.019,3.439-12.037,7.394-11.693C44.862,17.254,45.55,20.693,45.55,23.789Z" transform="translate(14.464 6.477)"/>
    <path id="Path_2" data-name="Path 2" d="M52.1,1.2S45.57,34.728,45.4,36.276c-2.064,10.318,2.923,13.413,9.114,13.413A24.193,24.193,0,0,0,65,46.938l1.548-7.91c-3.783.86-5.847.172-5.847-3.439,0-2.064,6.019-31.985,6.363-34.22C62.422-.18,57.435-.008,52.1,1.2Z" transform="translate(32.329 0.18)"/>
    <path id="Path_3" data-name="Path 3" d="M132.054,13.341c6.019,0,10.49-3.1,10.49-7.222,0-3.267-3.267-6.019-8.254-6.019-5.675,0-10.49,2.923-10.49,7.394C123.972,10.59,126.9,13.341,132.054,13.341Z" transform="translate(89.089 0.072)"/>
    <path id="Path_4" data-name="Path 4" d="M126.519,10.316,120.5,41.441a27.259,27.259,0,0,0,14.789,0l6.019-31.125A27.259,27.259,0,0,0,126.519,10.316Z" transform="translate(86.714 6.708)"/>
    <path id="Path_5" data-name="Path 5" d="M64.819,10.316,58.8,41.441a27.259,27.259,0,0,0,14.789,0l6.019-31.125A27.259,27.259,0,0,0,64.819,10.316Z" transform="translate(42.313 6.708)"/>
    <path id="Path_6" data-name="Path 6" d="M72.69,0C67.015,0,62.2,2.923,62.2,7.394c0,3.267,3.1,6.019,8.254,6.019,5.847,0,10.318-3.1,10.318-7.394C80.772,2.751,77.677,0,72.69,0Z" transform="translate(44.76)"/>
    <path id="Path_7" data-name="Path 7" d="M98.338,23.271l1.2-6.707H93.007c1.72-4.643,5.159-8.426,14.445-7.566l1.72-8.082A41.337,41.337,0,0,0,102.809.4c-15.477,0-21.5,7.91-24.247,15.992H74.092l-1.2,6.707h3.783L72.2,47.689a26.382,26.382,0,0,0,14.617,0S89.74,32.041,91.288,23.1h7.05Z" transform="translate(51.956 0.288)"/>
    <path id="Path_8" data-name="Path 8" d="M101.677,29.076c14.789,1.548,25.106-4.3,25.106-11.178,0-6.363-6.878-8.6-15.133-8.6-14.1,0-25.45,8.426-25.45,19.26C86.2,37.5,94.282,43,105.8,43A30.408,30.408,0,0,0,123,37.158l1.548-7.738C113.542,35.61,102.192,34.578,101.677,29.076Zm7.738-12.209c1.892,0,3.611.86,3.611,2.579,0,2.407-3.611,4.471-11.006,4.127C103.224,19.274,107.007,16.866,109.415,16.866Z" transform="translate(62.031 6.692)"/>
    <path id="Path_9" data-name="Path 9" d="M119.242,20.1c-4.815,0-9.114,3.439-9.8,7.738s2.407,7.738,7.222,7.738,9.286-3.439,9.974-7.738C127.152,23.539,124.057,20.1,119.242,20.1Z" transform="translate(78.686 14.464)"/>
    <path id="Path_10" data-name="Path 10" d="M169.775,18.054,171.5,9.8c-18.4-2.579-35.424,1.892-35.424,11.865,0,7.738,14.1,6.535,14.1,9.974,0,2.923-6.706,4.127-17.024,1.548L131.6,40.925a45.2,45.2,0,0,0,14.789,2.236c12.9,0,22.871-6.878,22.871-13.585,0-8.426-15.477-5.847-15.477-9.286C153.783,17.711,160.146,17.023,169.775,18.054Z" transform="translate(94.702 6.536)"/>
    <path id="Path_11" data-name="Path 11" d="M35.768,3.033A144.883,144.883,0,0,1,24.075,20.917C22.183,14.727,20.12,8.88,17.712,3.033,11.521,1.486,6.535,1.83,0,3.033A204.66,204.66,0,0,1,10.49,29L6.878,46.712c5.5,1.2,9.8,1.548,15.82,0l2.923-15.992A341.776,341.776,0,0,0,48.149,3.205,21.569,21.569,0,0,0,35.768,3.033Z" transform="translate(0 1.438)"/>
  </g>
</svg>
