<svg xmlns="http://www.w3.org/2000/svg" width="266.196" height="50.041" style=""><rect id="backgroundrect" width="100%" height="100%" x="0" y="0" fill="none" stroke="none"/>
  
<g class="currentLayer" style=""><title>Layer 1</title><g id="Group_1" data-name="Group 1" class="selected" fill="#ffffff" fill-opacity="1">
    <path id="Path_1" data-name="Path 1" d="M57.26399974822925,14.725120544433594 C43.67799974822992,14.725120544433594 34.563999748230344,23.839120544433598 34.563999748230344,34.157120544433596 c0,9.8 8.77,14.961 17.884,14.961 c13.757,0 22.7,-9.114 22.7,-19.432 C75.14699974823088,19.71212054443359 66.37699974823045,14.725120544433594 57.26399974822925,14.725120544433594 zM60.01399974822925,29.514120544433595 c-0.17200000000000001,5.675 -2.923,12.037 -7.222,11.521 c-2.407,-0.17200000000000001 -3.611,-3.439 -3.439,-6.535 c0.17200000000000001,-6.019 3.439,-12.037 7.394,-11.693 C59.32599974822915,22.9791205444336 60.01399974822925,26.41812054443359 60.01399974822925,29.514120544433595 z" fill="#ffffff" fill-opacity="1"/>
    <path id="Path_2" data-name="Path 2" d="M84.42899856567419,0.6281203150749235 S77.89899856567354,34.15612031507493 77.72899856567346,35.70412031507493 c-2.064,10.318 2.923,13.413 9.114,13.413 A24.193,24.193 0 0 0 97.32899856567383,46.36612031507492 l1.548,-7.91 c-3.783,0.8600000000000004 -5.847,0.17200000000000001 -5.847,-3.439 c0,-2.064 6.019,-31.985 6.363,-34.22 C94.75099856567431,-0.7518796849250791 89.76399856567332,-0.579879684925082 84.42899856567419,0.6281203150749235 z" fill="#ffffff" fill-opacity="1"/>
    <path id="Path_3" data-name="Path 3" d="M221.14299688720712,12.661120304822923 c6.019,0 10.49,-3.1 10.49,-7.222 c0,-3.267 -3.267,-6.019 -8.254,-6.019 c-5.675,0 -10.49,2.923 -10.49,7.394 C213.06099688720678,9.910120304822925 215.98899688720667,12.661120304822923 221.14299688720712,12.661120304822923 z" fill="#ffffff" fill-opacity="1"/>
    <path id="Path_4" data-name="Path 4" d="M213.23299688720726,16.272120491027835 L207.21399688720703,47.397120491027835 a27.259,27.259 0 0 0 14.789,0 l6.019,-31.125 A27.259,27.259 0 0 0 213.23299688720726,16.272120491027835 z" fill="#ffffff" fill-opacity="1"/>
    <path id="Path_5" data-name="Path 5" d="M107.1319997253413,16.272120491027835 L101.11299972534107,47.397120491027835 a27.259,27.259 0 0 0 14.789,0 l6.019,-31.125 A27.259,27.259 0 0 0 107.1319997253413,16.272120491027835 z" fill="#ffffff" fill-opacity="1"/>
    <path id="Path_6" data-name="Path 6" d="M117.44999832153371,-0.7518796920776367 C111.77499832153262,-0.7518796920776367 106.95999832153393,2.171120307922365 106.95999832153393,6.642120307922362 c0,3.267 3.1,6.019 8.254,6.019 c5.847,0 10.318,-3.1 10.318,-7.394 C125.53199832153405,1.999120307922361 122.43699832153288,-0.7518796920776367 117.44999832153371,-0.7518796920776367 z" fill="#ffffff" fill-opacity="1"/>
    <path id="Path_7" data-name="Path 7" d="M150.29400128173802,22.807120295524598 l1.2,-6.707 H144.9630012817379 c1.7200000000000002,-4.643 5.159,-8.426 14.445,-7.566 l1.7200000000000002,-8.082 A41.337,41.337 0 0 0 154.76500128173757,-0.06387970447540403 c-15.477,0 -21.5,7.91 -24.247,15.992 H126.04800128173883 l-1.2,6.707 h3.783 L124.15600128173901,47.225120295524604 a26.382,26.382 0 0 0 14.617,0 S141.69600128173806,31.577120295524594 143.24400128173875,22.63612029552459 h7.05 z" fill="#ffffff" fill-opacity="1"/>
    <path id="Path_8" data-name="Path 8" d="M163.70799822998015,35.01612022018432 c14.789,1.548 25.106,-4.3 25.106,-11.178 c0,-6.363 -6.878,-8.6 -15.133,-8.6 c-14.1,0 -25.45,8.426 -25.45,19.26 C148.2309982299812,43.440120220184326 156.3129982299797,48.940120220184326 167.83099822997974,48.940120220184326 A30.408,30.408 0 0 0 185.03099822998047,43.09812022018433 l1.548,-7.738 C175.57299822997993,41.550120220184326 164.22299822997957,40.51812022018433 163.70799822998015,35.01612022018432 zm7.738,-12.209 c1.8920000000000003,0 3.611,0.8600000000000004 3.611,2.579 c0,2.407 -3.611,4.471 -11.006,4.127 C165.25499822998063,25.214120220184327 169.03799822998008,22.806120220184326 171.44599822998134,22.806120220184326 z" fill="#ffffff" fill-opacity="1"/>
    <path id="Path_9" data-name="Path 9" d="M197.92799700927753,33.81212005615234 c-4.815,0 -9.114,3.439 -9.8,7.738 s2.407,7.738 7.222,7.738 s9.286,-3.439 9.974,-7.738 C205.8379970092774,37.251120056152345 202.74299700927804,33.81212005615234 197.92799700927753,33.81212005615234 z" fill="#ffffff" fill-opacity="1"/>
    <path id="Path_10" data-name="Path 10" d="M264.47700347900354,23.838120082855227 L266.2020034790039,15.584120082855222 c-18.4,-2.579 -35.424,1.8920000000000003 -35.424,11.865 c0,7.738 14.1,6.535 14.1,9.974 c0,2.923 -6.706,4.127 -17.024,1.548 L226.30200347900427,46.70912008285522 a45.2,45.2 0 0 0 14.789,2.236 c12.9,0 22.871,-6.878 22.871,-13.585 c0,-8.426 -15.477,-5.847 -15.477,-9.286 C248.48500347900335,23.495120082855223 254.84800347900455,22.80712008285522 264.47700347900354,23.838120082855227 z" fill="#ffffff" fill-opacity="1"/>
    <path id="Path_11" data-name="Path 11" d="M35.76800000000003,3.7191202716827405 A144.883,144.883 0 0 1 24.075000000000728,21.60312027168274 C22.183000000000902,15.413120271682743 20.1200000000008,9.566120271682742 17.711999999999534,3.7191202716827405 C11.52100000000064,2.1721202716827364 6.5349999999998545,2.5161202716827376 0,3.7191202716827405 A204.66,204.66 0 0 1 10.489999999999782,29.68612027168274 L6.878000000000611,47.39812027168274 c5.5,1.2 9.8,1.548 15.82,0 l2.923,-15.992 A341.776,341.776 0 0 0 48.14899999999943,3.8911202716827376 A21.569,21.569 0 0 0 35.76800000000003,3.7191202716827405 z" fill="#ffffff" fill-opacity="1"/>
  </g></g></svg>